<?xml version="1.0" encoding="UTF-8"?>
<svg width="70px" height="70px" viewBox="0 0 70 70" version="1.1" xmlns="http://www.w3.org/2000/svg" xmlns:xlink="http://www.w3.org/1999/xlink">
    <!-- Generator: Sketch 41 (35326) - http://www.bohemiancoding.com/sketch -->
    <title>Page 1</title>
    <desc>Created with Sketch.</desc>
    <defs>
        <circle id="path-1" cx="35" cy="35" r="35"></circle>
        <polygon id="path-3" points="40.9480667 19.502617 40.9480667 0.00538835979 2.9240905e-05 0.00538835979 2.9240905e-05 19.502617 40.9480667 19.502617"></polygon>
        <polygon id="path-5" points="34.9633869 0.0708358974 0.0283597687 0.0708358974 0.0283597687 27.3627379 34.9633869 27.3627379 34.9633869 0.0708358974"></polygon>
    </defs>
    <g id="Личный-кабинет" stroke="none" stroke-width="1" fill="none" fill-rule="evenodd">
        <g id="Мои-данные_займ" transform="translate(-884.000000, -1634.000000)">
            <g id="Page-1" transform="translate(884.000000, 1634.000000)">
                <mask id="mask-2" fill="white">
                    <use xlink:href="#path-1"></use>
                </mask>
                <use id="Mask" fill="#E1DFDF" xlink:href="#path-1"></use>
                <g mask="url(#mask-2)">
                    <g transform="translate(14.500000, 11.000000)">
                        <path d="M8.43868847,31.7962211 C8.20268254,30.864825 7.72552937,30.0167695 7.51216498,29.0755745 C7.38709271,28.5238633 7.20793781,27.9844256 7.05320414,27.439445 C7.09117074,27.0478826 6.99882489,26.6633476 7.00001135,26.2709933 C7.00772331,23.534114 7.07228631,20.79575 7.43178256,18.0836156 C7.80116596,15.2974446 9.20454601,13.0821867 11.5057769,11.4543716 C12.2372272,10.9370063 13.0362066,10.549205 13.8820511,10.2567209 C15.4588515,9.71154239 16.8688559,10.0571784 18.1374743,11.0800315 C18.8068334,11.6197662 19.4955713,12.1235713 20.2647904,12.5128572 C21.7181005,13.2482742 23.188021,13.2357038 24.6487464,12.5690775 C26.143978,11.8866146 27.7071341,11.5152439 29.3428619,11.5682969 C30.4046414,11.6027417 31.4898534,11.6383743 32.435558,12.2639241 C33.1543527,12.7394211 33.6602775,13.37863 33.8771024,14.2039202 C34.2748618,15.718008 34.710489,17.2254642 34.8898417,18.7889428 C35.0465528,20.1543636 35.0127388,21.526317 34.9320597,22.8888673 C34.8746155,23.8581725 34.9016074,24.8305461 34.7892895,25.8000493 C34.7047545,26.5297254 34.8010552,27.276426 34.7129608,28.0126347 C34.4263327,28.5352459 34.4026036,29.1385254 34.1993241,29.6872671 C33.9389958,30.3900208 33.6893456,31.0968327 33.4350485,31.8018629 C33.2687469,32.5587584 32.8332186,33.190049 32.4445553,33.833514 C30.7729372,36.6011759 28.6268355,38.9101672 25.8004,40.5294702 C24.2512836,41.4169194 22.6050755,42.0354417 20.7903906,41.9984234 C19.122233,41.9643745 17.5915067,41.3983113 16.1625189,40.5772772 C13.1120409,38.824748 10.8314742,36.317006 9.13157895,33.2592356 C8.86947098,32.7878957 8.52539865,32.3520894 8.43868847,31.7962211" id="Fill-1" fill="#F1CDA2"></path>
                        <g id="Group-5" stroke-width="1" fill="none" transform="translate(0.000000, 32.000000)">
                            <mask id="mask-4" fill="white">
                                <use xlink:href="#path-3"></use>
                            </mask>
                            <g id="Clip-4"></g>
                            <path d="M9.60969714,2.63925079 C11.3181281,5.32770053 13.469359,7.53531958 16.249159,9.06386455 C19.2910662,10.7366688 22.2588805,10.5437534 25.1882329,8.78107619 C28.4459757,6.82075873 30.7895162,3.99900741 32.4844757,0.565838095 C32.5785805,0.375134392 32.6255352,0.153668783 32.8004686,0.0111185185 C35.9130519,2.4807164 38.21364,5.5818381 39.6176948,9.3673619 C40.7930281,12.5365418 41.1741329,15.8148963 40.8222162,19.187145 C40.7980067,19.4195683 40.7251829,19.524018 40.4964614,19.4989862 C40.416121,19.4902402 40.3339257,19.4977799 40.252609,19.4977799 C27.0586138,19.4977799 13.8646186,19.4969757 0.670623333,19.5022032 C0.335009048,19.5023037 0.122199524,19.5131608 0.0847138095,19.0357481 C-0.518181429,11.3614571 2.10064476,5.10945185 7.85870429,0.228663492 C7.94617095,0.154473016 8.03334476,0.0797798942 8.12071381,0.00538835979 C8.61476381,0.88491746 9.0703519,1.79028254 9.60969714,2.63925079 Z" id="Fill-3" fill="#515B0A" mask="url(#mask-4)"></path>
                        </g>
                        <g id="Group-8" stroke-width="1" fill="none" transform="translate(3.000000, 0.000000)">
                            <mask id="mask-6" fill="white">
                                <use xlink:href="#path-5"></use>
                            </mask>
                            <g id="Clip-7"></g>
                            <path d="M31.2814026,27.3627379 C31.1159792,27.2186303 31.1906961,27.0263892 31.1957299,26.859579 C31.2579117,24.8004662 31.3088416,22.7406713 31.4046805,20.68302 C31.4933143,18.7796097 31.1516104,16.9409944 30.6586961,15.117579 C30.5574286,14.7426456 30.4704727,14.3638149 30.3731532,13.9877123 C29.9909818,12.5110713 28.8639117,11.6169021 27.2184623,11.4105328 C25.1082286,11.1458969 23.1089351,11.4624662 21.1736987,12.3361738 C19.6833091,13.0090662 18.1753506,12.959861 16.7140779,12.1987892 C15.985761,11.8194713 15.3095584,11.3609379 14.6781662,10.8369277 C13.371361,9.75207641 11.9215377,9.47555333 10.3146805,10.0976815 C6.89379221,11.4219328 4.85136623,13.890179 4.2106961,17.4383072 C3.97835325,18.7250456 3.94094545,20.0503687 3.8758026,21.3610764 C3.79279481,23.0297636 3.73554805,24.7007892 3.78776104,26.3728867 C3.7923013,26.51602 3.8834026,26.7054354 3.66912208,26.7982918 C3.39364675,26.1236456 3.1312987,25.4431533 2.83894545,24.77562 C2.54688831,24.1087687 2.10283117,23.5439328 1.50716883,23.1164815 C1.2314961,22.9186867 1.08956364,22.6773379 1.02965195,22.3604764 C0.525979221,19.6952149 0.160192208,17.0101738 0.0397766234,14.3026251 C-0.189506494,9.15011744 3.05470649,4.40304051 7.96756364,2.63175333 C8.37204156,2.48598923 8.7097974,2.40765077 8.55690909,1.8249841 C8.45465455,1.43524051 8.74829091,1.12841487 9.14141818,0.972907179 C9.45647273,0.848189231 9.79235325,0.817691795 10.1123429,0.878199487 C11.5930597,1.15793795 13.0224519,0.870599487 14.4458234,0.524994359 C17.2944416,-0.166897949 20.107626,-0.0814466667 22.884587,0.871866154 C25.2453247,1.68233795 26.9897714,3.20253282 28.1365818,5.38412256 C28.3824468,5.85191231 28.6936519,6.11878923 29.2298961,6.24633282 C32.5580052,7.03829179 34.9596052,10.0762456 34.9633558,13.4553226 C34.9667117,16.4814867 34.6980468,19.4785174 33.9751584,22.4277072 C33.9093247,22.6958508 33.7877247,22.8940354 33.5747273,23.06942 C32.4989818,23.9546251 31.8382753,25.0833226 31.5956675,26.4456713 C31.538026,26.7689636 31.4065558,27.0639995 31.2814026,27.3627379" id="Fill-6" fill="#47191F" mask="url(#mask-6)"></path>
                        </g>
                        <path d="M0,47 L41,47 L41,53.5452596 C41,53.5452596 32.4204073,59.0510295 20.897244,58.9996425 C9.37408076,58.9482555 0,53.5452596 0,53.5452596 L0,47 Z" id="Rectangle-3" fill="#515B0A"></path>
                    </g>
                </g>
            </g>
        </g>
    </g>
</svg>